<?xml version="1.0" standalone="no"?>
<!DOCTYPE svg PUBLIC "-//W3C//DTD SVG 20010904//EN"
 "http://www.w3.org/TR/2001/REC-SVG-20010904/DTD/svg10.dtd">
<svg version="1.0" xmlns="http://www.w3.org/2000/svg"
 width="512.000000pt" height="512.000000pt" viewBox="0 0 512.000000 512.000000"
 preserveAspectRatio="xMidYMid meet">

<g transform="translate(0.000000,512.000000) scale(0.100000,-0.100000)"
fill="#000000" stroke="none">
<path d="M2467 4629 c-117 -27 -240 -125 -290 -230 -110 -234 7 -506 254 -589
52 -18 81 -21 155 -18 81 3 100 8 167 41 159 78 255 244 202 346 -59 114 -216
117 -281 5 -34 -57 -59 -74 -110 -74 -52 0 -90 28 -103 77 -19 68 32 133 105
133 42 0 106 36 132 73 16 24 22 48 22 87 0 122 -106 184 -253 149z"/>
<path d="M2495 3664 c-49 -25 -62 -42 -104 -129 -75 -154 -196 -241 -590 -422
-124 -57 -263 -124 -310 -149 -294 -156 -463 -331 -541 -559 -34 -99 -35 -102
-35 -275 0 -140 4 -188 18 -240 48 -170 119 -303 220 -418 26 -29 47 -54 47
-57 0 -2 -25 -15 -55 -29 -67 -30 -154 -115 -188 -182 -43 -85 -49 -126 -48
-327 2 -221 12 -260 88 -327 86 -75 -28 -70 1563 -70 1591 0 1477 -5 1563 70
26 23 53 60 66 91 21 48 22 63 19 262 l-3 212 -32 68 c-39 83 -118 164 -197
204 l-58 29 52 60 c112 127 190 289 226 465 12 62 15 116 12 223 -4 125 -8
151 -37 236 -41 122 -106 226 -201 321 -136 137 -281 223 -671 402 -380 174
-497 259 -574 419 -19 39 -43 80 -53 91 -39 45 -123 60 -177 31z m124 -505
c142 -125 371 -261 586 -348 105 -43 333 -159 408 -208 89 -59 183 -153 219
-219 85 -156 77 -354 -22 -559 -75 -155 -191 -272 -348 -350 l-71 -35 -831 0
-831 0 -71 35 c-157 78 -273 195 -348 350 -126 261 -104 497 60 665 95 97 298
217 540 319 264 112 448 220 590 350 30 28 56 50 58 51 2 0 29 -23 61 -51z
m1211 -2057 c51 -25 60 -51 60 -184 l0 -118 -1330 0 -1330 0 0 118 c0 133 9
159 60 184 33 17 114 18 1270 18 1156 0 1237 -1 1270 -18z"/>
</g>
</svg>
